<svg width="900" height="440" xmlns="http://www.w3.org/2000/svg">
 <g>
  <title>Lines of Battle</title>
  <rect x="0" y="0" width="900" height="440" id="canvas_background" fill="#fff" stroke="#000"/>
  <line id="midx" stroke="#888" stroke-dasharray="3,1" y2="440" x2="450" y1="0" x1="450"/>
  <line id="midy" stroke="#888" stroke-dasharray="3,1" y2="220" x2="900" y1="220" x1="0"/>
 </g>
 <g>
  <title>Player A</title>
 <path id="player1" d="m0,440l0,-220,l330,0a120,120,0,0,0,120,120l0,100l-450,0z" stroke="#000" fill-opacity="0.5" fill="#f88"/>
 </g>
 <g>
  <title>Player B</title>
  <path id="player2" d="m900,0l0,220,l-330,0a120,120,0,0,0,-120,-120l0,-100l450,0z" stroke="#000" fill-opacity="0.5" fill="#88f"/>
 </g>
 <g>
  <title>Objective</title>
  <circle id="obj1" cx="558" cy="273" r="8" stroke="black" stroke-width="1" fill="yellow" />
  <circle id="obj2" cx="720" cy="352" r="8" stroke="black" stroke-width="1" fill="yellow" />
  <circle id="obj3" cx="881" cy="431" r="8" stroke="black" stroke-width="1" fill="yellow" />
  <circle id="obj4" cx="342" cy="167" r="8" stroke="black" stroke-width="1" fill="yellow" />
  <circle id="obj5" cx="180" cy="88" r="8" stroke="black" stroke-width="1" fill="yellow" />
  <circle id="obj6" cx="19" cy="9" r="8" stroke="black" stroke-width="1" fill="yellow" />
 </g>
</svg>