<svg width="600" height="440" xmlns="http://www.w3.org/2000/svg">
 <g>
  <title>The Four Pillars</title>
  <rect x="0" y="0" width="600" height="440" id="canvas_background" fill="#fff" stroke="#000"/>
  <line id="midx" stroke="#888" stroke-dasharray="3,1" y2="440" x2="300" y1="0" x1="300"/>
  <line id="midy" stroke="#888" stroke-dasharray="3,1" y2="220" x2="600" y1="220" x1="0"/>
 </g>
 <g>
  <title>Player A</title>
 <path id="player1" d="m0,440l0,-220,l210,0a90,90,0,0,0,90,90l0,130l-300,0z" stroke="#000" fill-opacity="0.5" fill="#f88"/>
 </g>
 <g>
  <title>Player B</title>
  <path id="player2" d="m600,0l0,220,l-210,0a90,90,0,0,0,-90,-90l0,-130l300,0z" stroke="#000" fill-opacity="0.5" fill="#88f"/>
 </g>
 <g>
  <title>Objective</title>
  <circle id="obj1" cx="150" cy="120" r="8" stroke="black" stroke-width="1" fill="yellow" />
  <circle id="obj2" cx="150" cy="320" r="8" stroke="black" stroke-width="1" fill="yellow" />
  <circle id="obj3" cx="450" cy="120" r="8" stroke="black" stroke-width="1" fill="yellow" />
  <circle id="obj4" cx="450" cy="320" r="8" stroke="black" stroke-width="1" fill="yellow" />
 </g>
</svg>